<?xml version="1.0" encoding="UTF-8" standalone="no"?><svg xmlns="http://www.w3.org/2000/svg" viewBox="0 0 512 512">    <defs>        <linearGradient id="linear-gradient" x1="53.917" y1="487.842" x2="458.89" y2="82.869"                        gradientUnits="userSpaceOnUse">            <stop offset="0" stop-color="#41dfd0"/>            <stop offset="1" stop-color="#ee83ef"/>        </linearGradient>    </defs>    <g id="gradient">        <path d="M488,408h-8V118a30.038,30.038,0,0,0-27.215-29.866l-15.006-25.99a8,8,0,0,0-10.928-2.928l-11.613,6.7a55.586,55.586,0,0,0-7.812-4.52V48a8,8,0,0,0-8-8h-32a8,8,0,0,0-8,8V61.4q-2.046.974-4.009,2.109-1.944,1.125-3.8,2.41L340,59.216a8,8,0,0,0-10.928,2.928L314.144,88H62a30.034,30.034,0,0,0-30,30V408H24a8,8,0,0,0-8,8v24a24.028,24.028,0,0,0,24,24H472a24.028,24.028,0,0,0,24-24V416A8,8,0,0,0,488,408ZM439.24,107.489,445.282,104H450a14.015,14.015,0,0,1,14,14V408H448V144.154l5.779-10.01a8,8,0,0,0-2.928-10.928l-11.611-6.7q.184-2.265.186-4.511T439.24,107.489Zm-95.134,11.825a39.674,39.674,0,0,1,0-14.628,8,8,0,0,0-3.867-8.381l-9.311-5.376,8-13.857,9.317,5.378a8,8,0,0,0,9.2-.848,40.409,40.409,0,0,1,5.988-4.244,39.926,39.926,0,0,1,6.659-3.073,8,8,0,0,0,5.334-7.543V56h16V66.742a8,8,0,0,0,5.333,7.542A39.8,39.8,0,0,1,409.405,81.6a8,8,0,0,0,9.2.849l9.317-5.378,8,13.857-9.311,5.376a8,8,0,0,0-3.867,8.38,39.628,39.628,0,0,1,0,14.63,8,8,0,0,0,3.867,8.38l9.311,5.376-8,13.857-9.317-5.378a8,8,0,0,0-9.2.849,39.8,39.8,0,0,1-12.646,7.317,8,8,0,0,0-5.333,7.542V168h-16V157.258a8,8,0,0,0-5.334-7.543,39.945,39.945,0,0,1-6.657-3.072,40.393,40.393,0,0,1-5.99-4.245,8,8,0,0,0-9.2-.848l-9.317,5.378-8-13.857,9.311-5.376A8,8,0,0,0,344.106,119.314Zm-10.176,46.27a7.989,7.989,0,0,0,6.07-.8l11.616-6.706q1.854,1.282,3.8,2.411t4.008,2.108V176a8,8,0,0,0,8,8H376v16h16V184h7.426a8,8,0,0,0,8-8V162.6a55.586,55.586,0,0,0,7.812-4.52l11.613,6.7a7.993,7.993,0,0,0,5.149.984V408H304a8,8,0,0,0-5.657,2.343l-10.728,10.728A9.934,9.934,0,0,1,280.544,424H231.456a9.931,9.931,0,0,1-7.071-2.93l-10.728-10.727A8,8,0,0,0,208,408H80V136H216v20.687l-13.657,13.656a7.994,7.994,0,0,0-2.1,3.717l-8,32a7.99,7.99,0,0,0-.13,3.255l6.793,40.762a16.6,16.6,0,0,0,10.771,12.935l-28.2,9.4c-.056.019-.089.042-.139.062A7.927,7.927,0,0,0,176,280v40H142.624a24,24,0,1,0,0,16H176v24a8,8,0,0,0,5.47,7.59l72,24a7.949,7.949,0,0,0,5.049,0l.011,0,72-24A8,8,0,0,0,336,360V336h33.376a24,24,0,1,0,0-16H336V280a7.927,7.927,0,0,0-5.332-7.528c-.05-.02-.083-.043-.139-.062l-34.38-11.457A48.4,48.4,0,0,0,303.973,236a18.289,18.289,0,0,0,4-4H328V216H312V192a7.994,7.994,0,0,0-.845-3.578L296,158.111V136h18.144l14.928,25.856A8,8,0,0,0,333.93,165.584Zm-53.085-2.006L296,193.889V220a3.976,3.976,0,0,1-1.2,2.854,3.907,3.907,0,0,1-2.88,1.145A4.289,4.289,0,0,1,288,219.6V208a8,8,0,0,0-2.343-5.657,41.991,41.991,0,0,0-59.314,0l-8,8A8,8,0,0,0,216,216v31.338a.662.662,0,0,1-1.315.108l-6.52-39.12,7.059-28.236,14.433-14.433A8,8,0,0,0,232,160V136h48v24A7.994,7.994,0,0,0,280.845,163.578ZM320,336v18.234L264,372.9V309.766L320,291.1V320H296v16Zm-128,0h24V320H192V291.1l56,18.666V372.9l-56-18.666Zm80.5-111.976a7.974,7.974,0,0,0-6.153,2.319L256,236.687l-10.343-10.344A8,8,0,0,0,232,232V219.313l5.657-5.656A25.981,25.981,0,0,1,272,211.579V219.6A20.488,20.488,0,0,0,272.5,224.024ZM268,272h-4V251.314l13.657-13.657a7.972,7.972,0,0,0,1.627-2.365,19.81,19.81,0,0,0,8.332,4.207A32.267,32.267,0,0,1,281.6,253.87Zm-12,23.567-5.62-1.873A7.961,7.961,0,0,1,248,288h16a7.961,7.961,0,0,1-2.38,5.694Zm-24-48.229V232a7.98,7.98,0,0,0,2.343,5.655L248,251.314V272h-4l-13.44-17.917A16.536,16.536,0,0,0,232,247.338Zm-6.139,27.144L232,282.667v4.9L209.3,280ZM280,287.567v-4.9l6.139-8.185L302.7,280ZM128,328a8,8,0,1,1-8-8A8.009,8.009,0,0,1,128,328Zm256,0a8,8,0,1,1,8,8A8.009,8.009,0,0,1,384,328ZM48,118a14.015,14.015,0,0,1,14-14H321.569l6.043,3.489c-.124,1.509-.186,3.016-.186,4.511s.062,3,.186,4.511L321.569,120H72a8,8,0,0,0-8,8V408H48ZM480,440a8.009,8.009,0,0,1-8,8H40a8.009,8.009,0,0,1-8-8V424H204.687l8.384,8.384A25.828,25.828,0,0,0,231.456,440h49.088a25.832,25.832,0,0,0,18.385-7.615L307.313,424H480ZM176,224H160V208h16Zm0-32H160V152h16Zm207.426-56a24,24,0,1,0-24-24A24.027,24.027,0,0,0,383.426,136Zm0-32a8,8,0,1,1-8,8A8.009,8.009,0,0,1,383.426,104ZM392,232H376V216h16Zm-32,0H344V216h16Z"              style="fill:url(#linear-gradient)"/>    </g></svg>